<svg xmlns="http://www.w3.org/2000/svg" version="1.1" xmlns:xlink="http://www.w3.org/1999/xlink" xmlns:svgjs="http://svgjs.dev/svgjs" viewBox="0 0 2400 800" opacity="0.75"><defs><linearGradient x1="50%" y1="0%" x2="50%" y2="100%" id="oooscillate-grad"><stop stop-color="hsl(271, 59%, 69%)" stop-opacity="1" offset="0%"></stop><stop stop-color="hsl(331, 3%, 86%)" stop-opacity="1" offset="100%"></stop></linearGradient></defs><g stroke-width="3.5" stroke="url(#oooscillate-grad)" fill="none" stroke-linecap="round"><path d="M 0 490 Q 600 190 1200 400 Q 1800 610 2400 490" stroke-dasharray="0 1" opacity="0.05"></path><path d="M 0 476 Q 600 190 1200 400 Q 1800 610 2400 476" stroke-dasharray="1 0" opacity="0.08"></path><path d="M 0 462 Q 600 190 1200 400 Q 1800 610 2400 462" stroke-dasharray="1 1" opacity="0.11"></path><path d="M 0 448 Q 600 190 1200 400 Q 1800 610 2400 448" stroke-dasharray="1 0" opacity="0.13"></path><path d="M 0 434 Q 600 190 1200 400 Q 1800 610 2400 434" stroke-dasharray="1 1" opacity="0.16"></path><path d="M 0 420 Q 600 190 1200 400 Q 1800 610 2400 420" stroke-dasharray="0 1" opacity="0.19"></path><path d="M 0 406 Q 600 190 1200 400 Q 1800 610 2400 406" stroke-dasharray="1 1" opacity="0.22"></path><path d="M 0 392 Q 600 190 1200 400 Q 1800 610 2400 392" stroke-dasharray="1 0" opacity="0.25"></path><path d="M 0 378 Q 600 190 1200 400 Q 1800 610 2400 378" stroke-dasharray="1 1" opacity="0.27"></path><path d="M 0 364 Q 600 190 1200 400 Q 1800 610 2400 364" stroke-dasharray="1 1" opacity="0.30"></path><path d="M 0 350 Q 600 190 1200 400 Q 1800 610 2400 350" opacity="0.33"></path><path d="M 0 336 Q 600 190 1200 400 Q 1800 610 2400 336" stroke-dasharray="1 1" opacity="0.36"></path><path d="M 0 322 Q 600 190 1200 400 Q 1800 610 2400 322" stroke-dasharray="1 0" opacity="0.39"></path><path d="M 0 308 Q 600 190 1200 400 Q 1800 610 2400 308" stroke-dasharray="1 0" opacity="0.41"></path><path d="M 0 294 Q 600 190 1200 400 Q 1800 610 2400 294" stroke-dasharray="0 1" opacity="0.44"></path><path d="M 0 280 Q 600 190 1200 400 Q 1800 610 2400 280" opacity="0.47"></path><path d="M 0 266 Q 600 190 1200 400 Q 1800 610 2400 266" opacity="0.50"></path><path d="M 0 252 Q 600 190 1200 400 Q 1800 610 2400 252" stroke-dasharray="0 1" opacity="0.53"></path><path d="M 0 238 Q 600 190 1200 400 Q 1800 610 2400 238" opacity="0.55"></path><path d="M 0 224 Q 600 190 1200 400 Q 1800 610 2400 224" stroke-dasharray="1 1" opacity="0.58"></path><path d="M 0 210 Q 600 190 1200 400 Q 1800 610 2400 210" opacity="0.61"></path><path d="M 0 196 Q 600 190 1200 400 Q 1800 610 2400 196" opacity="0.64"></path><path d="M 0 182 Q 600 190 1200 400 Q 1800 610 2400 182" stroke-dasharray="0 1" opacity="0.66"></path><path d="M 0 168 Q 600 190 1200 400 Q 1800 610 2400 168" stroke-dasharray="1 1" opacity="0.69"></path><path d="M 0 154 Q 600 190 1200 400 Q 1800 610 2400 154" stroke-dasharray="1 1" opacity="0.72"></path><path d="M 0 140 Q 600 190 1200 400 Q 1800 610 2400 140" stroke-dasharray="0 1" opacity="0.75"></path><path d="M 0 126 Q 600 190 1200 400 Q 1800 610 2400 126" stroke-dasharray="1 0" opacity="0.78"></path><path d="M 0 112 Q 600 190 1200 400 Q 1800 610 2400 112" stroke-dasharray="0 1" opacity="0.80"></path><path d="M 0 98 Q 600 190 1200 400 Q 1800 610 2400 98" stroke-dasharray="1 1" opacity="0.83"></path><path d="M 0 84 Q 600 190 1200 400 Q 1800 610 2400 84" stroke-dasharray="1 0" opacity="0.86"></path><path d="M 0 70 Q 600 190 1200 400 Q 1800 610 2400 70" stroke-dasharray="1 0" opacity="0.89"></path><path d="M 0 56 Q 600 190 1200 400 Q 1800 610 2400 56" stroke-dasharray="0 1" opacity="0.92"></path><path d="M 0 42 Q 600 190 1200 400 Q 1800 610 2400 42" stroke-dasharray="1 0" opacity="0.94"></path><path d="M 0 28 Q 600 190 1200 400 Q 1800 610 2400 28" stroke-dasharray="0 1" opacity="0.97"></path></g></svg>